<svg xmlns="http://www.w3.org/2000/svg" viewBox="0 0 920 516" font-family="IBM Plex Sans, -apple-system, Segoe UI, sans-serif" font-size="12">
<rect width="920" height="516" fill="#12151b"/>
<text x="58" y="15" fill="#c9d3e0" font-size="11">Each candidate on its own raw scale &#8212; the actual shape, not normalised</text>
<rect x="58" y="24" width="842" height="96" fill="#171b22"/>
<line x1="198.4" y1="24" x2="198.4" y2="120" stroke="#c9d3e0" stroke-opacity="0.22" stroke-dasharray="2 3"/>
<line x1="291.5" y1="24" x2="291.5" y2="120" stroke="#c9d3e0" stroke-opacity="0.22" stroke-dasharray="2 3"/>
<line x1="371.7" y1="24" x2="371.7" y2="120" stroke="#c9d3e0" stroke-opacity="0.22" stroke-dasharray="2 3"/>
<line x1="460.7" y1="24" x2="460.7" y2="120" stroke="#c9d3e0" stroke-opacity="0.22" stroke-dasharray="2 3"/>
<line x1="536.1" y1="24" x2="536.1" y2="120" stroke="#c9d3e0" stroke-opacity="0.22" stroke-dasharray="2 3"/>
<line x1="613.8" y1="24" x2="613.8" y2="120" stroke="#c9d3e0" stroke-opacity="0.22" stroke-dasharray="2 3"/>
<line x1="704.9" y1="24" x2="704.9" y2="120" stroke="#c9d3e0" stroke-opacity="0.22" stroke-dasharray="2 3"/>
<line x1="783.7" y1="24" x2="783.7" y2="120" stroke="#c9d3e0" stroke-opacity="0.22" stroke-dasharray="2 3"/>
<line x1="858.3" y1="24" x2="858.3" y2="120" stroke="#c9d3e0" stroke-opacity="0.22" stroke-dasharray="2 3"/>
<line x1="884.1" y1="24" x2="884.1" y2="120" stroke="#c9d3e0" stroke-opacity="0.22" stroke-dasharray="2 3"/>
<polyline points="58.7,37.4 60.2,37.4 61.6,37.4 63.1,37.4 64.6,37.4 66.0,37.4 67.5,37.4 68.9,37.4 70.4,37.4 71.9,37.4 73.3,37.4 74.8,37.4 76.2,37.4 77.7,37.4 79.1,44.1 80.6,42.4 82.1,45.8 83.5,48.4 85.0,40.8 86.4,35.7 87.9,34.0 89.3,34.0 90.8,46.7 92.3,38.2 93.7,35.7 95.2,45.8 96.6,56.0 98.1,57.6 99.6,54.3 101.0,46.7 102.5,33.2 103.9,30.6 105.4,34.0 106.8,37.4 108.3,45.8 109.8,61.0 111.2,61.9 112.7,56.0 114.1,50.0 115.6,49.2 117.0,49.2 118.5,45.8 120.0,45.8 121.4,45.8 122.9,47.5 124.3,40.8 125.8,38.2 127.3,32.3 128.7,32.3 130.2,33.2 131.6,34.8 133.1,43.3 134.5,45.8 136.0,59.3 137.5,59.3 138.9,54.3 140.4,52.6 141.8,50.9 143.3,50.9 144.8,50.9 146.2,45.8 147.7,47.5 149.1,45.8 150.6,45.8 152.0,45.8 153.5,45.8 155.0,44.1 156.4,40.8 157.9,44.1 159.3,44.1 160.8,45.8 162.2,44.1 163.7,45.8 165.2,44.1 166.6,40.8 168.1,32.3 169.5,35.7 171.0,42.4 172.5,40.8 173.9,40.8 175.4,37.4 176.8,42.4 178.3,49.2 179.7,52.6 181.2,62.7 182.7,57.6 184.1,56.0 185.6,59.3 187.0,59.3 188.5,59.3 189.9,57.6 191.4,40.8 192.9,52.6 194.3,52.6 195.8,49.2 197.2,47.5 198.7,49.2 200.2,50.9 201.6,54.3 203.1,56.0 204.5,57.6 206.0,57.6 207.4,57.6 208.9,56.0 210.4,56.0 211.8,52.6 213.3,50.9 214.7,50.9 216.2,49.2 217.7,47.5 219.1,47.5 220.6,47.5 222.0,47.5 223.5,49.2 224.9,50.9 226.4,52.6 227.9,50.9 229.3,50.9 230.8,50.9 232.2,49.2 233.7,49.2 235.1,50.9 236.6,50.9 238.1,71.2 239.5,72.8 241.0,62.7 242.4,61.0 243.9,59.3 245.4,59.3 246.8,59.3 248.3,59.3 249.7,56.0 251.2,61.0 252.6,61.0 254.1,61.0 255.6,61.0 257.0,61.0 258.5,61.0 259.9,61.0 261.4,61.0 262.9,59.3 264.3,59.3 265.8,57.6 267.2,57.6 268.7,57.6 270.1,57.6 271.6,57.6 273.1,59.3 274.5,57.6 276.0,59.3 277.4,59.3 278.9,59.3 280.3,61.0 281.8,61.0 283.3,59.3 284.7,57.6 286.2,57.6 287.6,57.6 289.1,57.6 290.6,57.6 292.0,57.6 293.5,59.3 294.9,59.3 296.4,59.3 297.8,57.6 299.3,59.3 300.8,59.3 302.2,59.3 303.7,59.3 305.1,59.3 306.6,59.3 308.0,59.3 309.5,61.0 311.0,61.0 312.4,61.0 313.9,61.0 315.3,61.0 316.8,62.7 318.3,62.7 319.7,61.0 321.2,59.3 322.6,59.3 324.1,61.0 325.5,61.0 327.0,62.7 328.5,62.7 329.9,62.7 331.4,62.7 332.8,62.7 334.3,61.0 335.8,59.3 337.2,59.3 338.7,59.3 340.1,61.0 341.6,64.4 343.0,62.7 344.5,62.7 346.0,62.7 347.4,62.7 348.9,62.7 350.3,59.3 351.8,59.3 353.2,59.3 354.7,62.7 356.2,64.4 357.6,64.4 359.1,64.4 360.5,64.4 362.0,66.1 363.5,66.1 364.9,69.5 366.4,69.5 367.8,67.8 369.3,64.4 370.7,64.4 372.2,64.4 373.7,64.4 375.1,64.4 376.6,62.7 378.0,61.0 379.5,62.7 380.9,62.7 382.4,62.7 383.9,61.0 385.3,61.0 386.8,61.0 388.2,62.7 389.7,61.0 391.2,61.0 392.6,61.0 394.1,62.7 395.5,62.7 397.0,62.7 398.4,64.4 399.9,62.7 401.4,64.4 402.8,62.7 404.3,62.7 405.7,62.7 407.2,62.7 408.7,62.7 410.1,62.7 411.6,62.7 413.0,64.4 414.5,66.1 415.9,66.1 417.4,66.1 418.9,66.1 420.3,66.1 421.8,62.7 423.2,62.7 424.7,62.7 426.1,62.7 427.6,64.4 429.1,64.4 430.5,64.4 432.0,64.4 433.4,64.4 434.9,66.1 436.4,64.4 437.8,64.4 439.3,64.4 440.7,64.4 442.2,64.4 443.6,66.1 445.1,66.1 446.6,66.1 448.0,66.1 449.5,66.1 450.9,66.1 452.4,66.1 453.8,66.1 455.3,66.1 456.8,66.1 458.2,66.1 459.7,66.1 461.1,67.8 462.6,66.1 464.1,66.1 465.5,67.8 467.0,67.8 468.4,67.8 469.9,66.1 471.3,66.1 472.8,64.4 474.3,67.8 475.7,69.5 477.2,72.8 478.6,72.8 480.1,71.2 481.6,67.8 483.0,66.1 484.5,67.8 485.9,67.8 487.4,67.8 488.8,67.8 490.3,67.8 491.8,67.8 493.2,67.8 494.7,67.8 496.1,67.8 497.6,69.5 499.0,71.2 500.5,69.5 502.0,69.5 503.4,69.5 504.9,69.5 506.3,69.5 507.8,69.5 509.3,69.5 510.7,69.5 512.2,69.5 513.6,69.5 515.1,69.5 516.5,69.5 518.0,69.5 519.5,69.5 520.9,71.2 522.4,71.2 523.8,71.2 525.3,71.2 526.7,69.5 528.2,69.5 529.7,69.5 531.1,69.5 532.6,71.2 534.0,71.2 535.5,71.2 537.0,71.2 538.4,71.2 539.9,71.2 541.3,71.2 542.8,71.2 544.2,71.2 545.7,71.2 547.2,71.2 548.6,71.2 550.1,71.2 551.5,72.8 553.0,74.5 554.5,74.5 555.9,72.8 557.4,72.8 558.8,72.8 560.3,72.8 561.7,72.8 563.2,72.8 564.7,74.5 566.1,74.5 567.6,74.5 569.0,74.5 570.5,74.5 571.9,74.5 573.4,76.2 574.9,76.2 576.3,76.2 577.8,76.2 579.2,77.9 580.7,76.2 582.2,74.5 583.6,72.8 585.1,72.8 586.5,74.5 588.0,76.2 589.4,76.2 590.9,76.2 592.4,76.2 593.8,76.2 595.3,76.2 596.7,76.2 598.2,76.2 599.7,76.2 601.1,76.2 602.6,76.2 604.0,76.2 605.5,76.2 606.9,76.2 608.4,76.2 609.9,76.2 611.3,76.2 612.8,76.2 614.2,76.2 615.7,77.9 617.1,77.9 618.6,77.9 620.1,77.9 621.5,77.9 623.0,79.6 624.4,79.6 625.9,79.6 627.4,79.6 628.8,79.6 630.3,81.3 631.7,81.3 633.2,81.3 634.6,77.9 636.1,77.9 637.6,76.2 639.0,76.2 640.5,77.9 641.9,77.9 643.4,66.1 644.8,71.2 646.3,71.2 647.8,66.1 649.2,66.1 650.7,66.1 652.1,62.7 653.6,62.7 655.1,59.3 656.5,57.6 658.0,59.3 659.4,59.3 660.9,66.1 662.3,69.5 663.8,77.9 665.3,81.3 666.7,83.0 668.2,84.7 669.6,85.5 671.1,86.4 672.6,88.0 674.0,88.0 675.5,89.7 676.9,89.7 678.4,91.4 679.8,91.4 681.3,78.8 682.8,79.6 684.2,81.3 685.7,81.3 687.1,81.3 688.6,81.3 690.0,81.3 691.5,81.3 693.0,83.0 694.4,83.0 695.9,83.0 697.3,83.0 698.8,83.0 700.3,83.0 701.7,83.0 703.2,83.0 704.6,83.0 706.1,83.0 707.5,83.0 709.0,84.7 710.5,83.0 711.9,83.0 713.4,83.0 714.8,83.0 716.3,83.0 717.7,83.0 719.2,84.7 720.7,84.7 722.1,84.7 723.6,84.7 725.0,84.7 726.5,84.7 728.0,84.7 729.4,84.7 730.9,85.5 732.3,84.7 733.8,86.4 735.2,86.4 736.7,86.4 738.2,86.4 739.6,86.4 741.1,86.4 742.5,84.7 744.0,83.0 745.5,83.0 746.9,84.7 748.4,86.4 749.8,86.4 751.3,86.4 752.7,86.4 754.2,86.4 755.7,86.4 757.1,86.4 758.6,88.0 760.0,88.0 761.5,88.0 762.9,88.0 764.4,88.9 765.9,88.0 767.3,88.0 768.8,88.0 770.2,86.4 771.7,88.0 773.2,89.7 774.6,89.7 776.1,89.7 777.5,89.7 779.0,89.7 780.4,89.7 781.9,91.4 783.4,89.7 784.8,88.0 786.3,88.0 787.7,88.0 789.2,88.0 790.6,89.7 792.1,89.7 793.6,91.4 795.0,91.4 796.5,91.4 797.9,91.4 799.4,91.4 800.9,93.1 802.3,93.1 803.8,93.1 805.2,93.1 806.7,93.1 808.1,93.1 809.6,93.1 811.1,93.1 812.5,93.1 814.0,93.1 815.4,93.1 816.9,93.1 818.4,93.1 819.8,94.8 821.3,93.1 822.7,93.1 824.2,93.1 825.6,94.8 827.1,94.8 828.6,96.5 830.0,96.5 831.5,96.5 832.9,94.8 834.4,93.1 835.8,93.1 837.3,94.8 838.8,95.6 840.2,96.5 841.7,93.1 843.1,89.7 844.6,88.0 846.1,91.4 847.5,96.5 849.0,98.2 850.4,98.2 851.9,98.2 853.3,98.2 854.8,98.2 856.3,96.5 857.7,98.2 859.2,98.2 860.6,99.0 862.1,99.9 863.5,101.6 865.0,101.6 866.5,101.6 867.9,103.2 869.4,103.2 870.8,104.9 872.3,104.9 873.8,104.9 875.2,106.6 876.7,106.6 878.1,106.6 879.6,108.3 881.0,108.3 882.5,104.9 884.0,104.9 885.4,104.9 886.9,106.6 888.3,106.6 889.8,108.3 891.3,108.3 892.7,108.3 894.2,110.0 895.6,111.7 897.1,113.4 898.5,113.4 900.0,111.7" fill="none" stroke="#4ea6ff" stroke-width="1.8"/>
<text x="58" y="18" fill="#4ea6ff" font-size="11">0x3E3 b0  <tspan fill="#7c8698" font-size="9">SOC candidate  201 &#8594; 157</tspan></text>
<text x="52" y="32" fill="#7c8698" text-anchor="end" font-size="9">209</text>
<text x="52" y="120" fill="#7c8698" text-anchor="end" font-size="9">152</text>
<rect x="58" y="146" width="842" height="96" fill="#171b22"/>
<line x1="198.4" y1="146" x2="198.4" y2="242" stroke="#c9d3e0" stroke-opacity="0.22" stroke-dasharray="2 3"/>
<line x1="291.5" y1="146" x2="291.5" y2="242" stroke="#c9d3e0" stroke-opacity="0.22" stroke-dasharray="2 3"/>
<line x1="371.7" y1="146" x2="371.7" y2="242" stroke="#c9d3e0" stroke-opacity="0.22" stroke-dasharray="2 3"/>
<line x1="460.7" y1="146" x2="460.7" y2="242" stroke="#c9d3e0" stroke-opacity="0.22" stroke-dasharray="2 3"/>
<line x1="536.1" y1="146" x2="536.1" y2="242" stroke="#c9d3e0" stroke-opacity="0.22" stroke-dasharray="2 3"/>
<line x1="613.8" y1="146" x2="613.8" y2="242" stroke="#c9d3e0" stroke-opacity="0.22" stroke-dasharray="2 3"/>
<line x1="704.9" y1="146" x2="704.9" y2="242" stroke="#c9d3e0" stroke-opacity="0.22" stroke-dasharray="2 3"/>
<line x1="783.7" y1="146" x2="783.7" y2="242" stroke="#c9d3e0" stroke-opacity="0.22" stroke-dasharray="2 3"/>
<line x1="858.3" y1="146" x2="858.3" y2="242" stroke="#c9d3e0" stroke-opacity="0.22" stroke-dasharray="2 3"/>
<line x1="884.1" y1="146" x2="884.1" y2="242" stroke="#c9d3e0" stroke-opacity="0.22" stroke-dasharray="2 3"/>
<polyline points="58.7,160.5 60.2,160.5 61.6,160.5 63.1,160.5 64.6,160.5 66.0,160.5 67.5,160.5 68.9,160.5 70.4,160.5 71.9,160.5 73.3,160.5 74.8,160.5 76.2,160.5 77.7,160.5 79.1,168.4 80.6,164.4 82.1,168.4 83.5,172.3 85.0,160.5 86.4,156.6 87.9,152.6 89.3,156.6 90.8,170.4 92.3,158.5 93.7,156.6 95.2,168.4 96.6,180.2 98.1,180.2 99.6,176.3 101.0,168.4 102.5,152.6 103.9,152.6 105.4,156.6 106.8,160.5 108.3,168.4 109.8,184.1 111.2,184.1 112.7,176.3 114.1,172.3 115.6,172.3 117.0,172.3 118.5,168.4 120.0,168.4 121.4,168.4 122.9,168.4 124.3,164.4 125.8,160.5 127.3,152.6 128.7,152.6 130.2,152.6 131.6,156.6 133.1,168.4 134.5,168.4 136.0,184.1 137.5,180.2 138.9,176.3 140.4,176.3 141.8,172.3 143.3,172.3 144.8,172.3 146.2,168.4 147.7,168.4 149.1,168.4 150.6,168.4 152.0,168.4 153.5,168.4 155.0,164.4 156.4,164.4 157.9,168.4 159.3,168.4 160.8,168.4 162.2,166.4 163.7,168.4 165.2,168.4 166.6,164.4 168.1,152.6 169.5,156.6 171.0,164.4 172.5,164.4 173.9,164.4 175.4,160.5 176.8,164.4 178.3,172.3 179.7,176.3 181.2,184.1 182.7,180.2 184.1,180.2 185.6,180.2 187.0,184.1 188.5,184.1 189.9,180.2 191.4,164.4 192.9,176.3 194.3,176.3 195.8,172.3 197.2,168.4 198.7,172.3 200.2,172.3 201.6,176.3 203.1,176.3 204.5,180.2 206.0,180.2 207.4,180.2 208.9,180.2 210.4,176.3 211.8,176.3 213.3,172.3 214.7,172.3 216.2,172.3 217.7,172.3 219.1,172.3 220.6,172.3 222.0,168.4 223.5,172.3 224.9,172.3 226.4,176.3 227.9,176.3 229.3,172.3 230.8,172.3 232.2,172.3 233.7,172.3 235.1,172.3 236.6,172.3 238.1,194.0 239.5,192.0 241.0,184.1 242.4,184.1 243.9,184.1 245.4,184.1 246.8,184.1 248.3,184.1 249.7,180.2 251.2,184.1 252.6,184.1 254.1,184.1 255.6,184.1 257.0,184.1 258.5,184.1 259.9,184.1 261.4,184.1 262.9,184.1 264.3,180.2 265.8,180.2 267.2,180.2 268.7,180.2 270.1,180.2 271.6,180.2 273.1,180.2 274.5,180.2 276.0,180.2 277.4,180.2 278.9,184.1 280.3,184.1 281.8,184.1 283.3,184.1 284.7,180.2 286.2,180.2 287.6,180.2 289.1,180.2 290.6,180.2 292.0,180.2 293.5,180.2 294.9,184.1 296.4,184.1 297.8,180.2 299.3,180.2 300.8,180.2 302.2,182.2 303.7,184.1 305.1,184.1 306.6,184.1 308.0,184.1 309.5,184.1 311.0,184.1 312.4,184.1 313.9,184.1 315.3,184.1 316.8,184.1 318.3,184.1 319.7,184.1 321.2,184.1 322.6,184.1 324.1,184.1 325.5,184.1 327.0,184.1 328.5,188.1 329.9,188.1 331.4,188.1 332.8,184.1 334.3,184.1 335.8,184.1 337.2,184.1 338.7,180.2 340.1,184.1 341.6,188.1 343.0,188.1 344.5,188.1 346.0,188.1 347.4,188.1 348.9,184.1 350.3,184.1 351.8,184.1 353.2,184.1 354.7,188.1 356.2,188.1 357.6,188.1 359.1,188.1 360.5,188.1 362.0,188.1 363.5,188.1 364.9,192.0 366.4,192.0 367.8,192.0 369.3,188.1 370.7,188.1 372.2,188.1 373.7,188.1 375.1,188.1 376.6,184.1 378.0,184.1 379.5,188.1 380.9,188.1 382.4,184.1 383.9,184.1 385.3,184.1 386.8,184.1 388.2,184.1 389.7,184.1 391.2,184.1 392.6,184.1 394.1,188.1 395.5,184.1 397.0,184.1 398.4,188.1 399.9,188.1 401.4,188.1 402.8,188.1 404.3,188.1 405.7,184.1 407.2,184.1 408.7,188.1 410.1,188.1 411.6,188.1 413.0,188.1 414.5,188.1 415.9,188.1 417.4,188.1 418.9,188.1 420.3,188.1 421.8,188.1 423.2,184.1 424.7,188.1 426.1,188.1 427.6,188.1 429.1,188.1 430.5,188.1 432.0,188.1 433.4,188.1 434.9,188.1 436.4,188.1 437.8,188.1 439.3,188.1 440.7,188.1 442.2,188.1 443.6,188.1 445.1,188.1 446.6,192.0 448.0,192.0 449.5,192.0 450.9,192.0 452.4,192.0 453.8,192.0 455.3,192.0 456.8,192.0 458.2,192.0 459.7,192.0 461.1,192.0 462.6,192.0 464.1,192.0 465.5,192.0 467.0,192.0 468.4,192.0 469.9,192.0 471.3,188.1 472.8,188.1 474.3,192.0 475.7,196.0 477.2,196.0 478.6,196.0 480.1,196.0 481.6,192.0 483.0,192.0 484.5,192.0 485.9,192.0 487.4,192.0 488.8,192.0 490.3,192.0 491.8,192.0 493.2,192.0 494.7,192.0 496.1,192.0 497.6,196.0 499.0,196.0 500.5,196.0 502.0,196.0 503.4,192.0 504.9,192.0 506.3,196.0 507.8,192.0 509.3,192.0 510.7,192.0 512.2,192.0 513.6,192.0 515.1,192.0 516.5,192.0 518.0,192.0 519.5,194.0 520.9,196.0 522.4,196.0 523.8,196.0 525.3,196.0 526.7,192.0 528.2,192.0 529.7,192.0 531.1,196.0 532.6,196.0 534.0,196.0 535.5,196.0 537.0,196.0 538.4,196.0 539.9,196.0 541.3,196.0 542.8,196.0 544.2,196.0 545.7,196.0 547.2,196.0 548.6,196.0 550.1,196.0 551.5,196.0 553.0,199.9 554.5,199.9 555.9,196.0 557.4,196.0 558.8,196.0 560.3,196.0 561.7,196.0 563.2,196.0 564.7,199.9 566.1,199.9 567.6,199.9 569.0,199.9 570.5,199.9 571.9,199.9 573.4,199.9 574.9,199.9 576.3,199.9 577.8,199.9 579.2,199.9 580.7,199.9 582.2,199.9 583.6,199.9 585.1,199.9 586.5,199.9 588.0,199.9 589.4,199.9 590.9,199.9 592.4,199.9 593.8,199.9 595.3,199.9 596.7,199.9 598.2,199.9 599.7,199.9 601.1,199.9 602.6,199.9 604.0,199.9 605.5,199.9 606.9,199.9 608.4,199.9 609.9,199.9 611.3,199.9 612.8,199.9 614.2,199.9 615.7,203.9 617.1,203.9 618.6,203.9 620.1,203.9 621.5,203.9 623.0,203.9 624.4,203.9 625.9,203.9 627.4,203.9 628.8,203.9 630.3,203.9 631.7,207.8 633.2,203.9 634.6,203.9 636.1,203.9 637.6,199.9 639.0,199.9 640.5,203.9 641.9,203.9 643.4,192.0 644.8,196.0 646.3,196.0 647.8,192.0 649.2,192.0 650.7,192.0 652.1,188.1 653.6,186.1 655.1,184.1 656.5,180.2 658.0,184.1 659.4,184.1 660.9,188.1 662.3,192.0 663.8,203.9 665.3,203.9 666.7,207.8 668.2,207.8 669.6,211.7 671.1,211.7 672.6,211.7 674.0,211.7 675.5,211.7 676.9,215.7 678.4,215.7 679.8,215.7 681.3,203.9 682.8,203.9 684.2,207.8 685.7,207.8 687.1,203.9 688.6,207.8 690.0,207.8 691.5,207.8 693.0,207.8 694.4,207.8 695.9,207.8 697.3,207.8 698.8,207.8 700.3,207.8 701.7,207.8 703.2,207.8 704.6,207.8 706.1,207.8 707.5,207.8 709.0,207.8 710.5,207.8 711.9,207.8 713.4,207.8 714.8,207.8 716.3,207.8 717.7,207.8 719.2,207.8 720.7,207.8 722.1,207.8 723.6,207.8 725.0,211.7 726.5,211.7 728.0,211.7 729.4,211.7 730.9,211.7 732.3,211.7 733.8,211.7 735.2,211.7 736.7,211.7 738.2,211.7 739.6,211.7 741.1,211.7 742.5,207.8 744.0,207.8 745.5,207.8 746.9,207.8 748.4,211.7 749.8,211.7 751.3,211.7 752.7,211.7 754.2,211.7 755.7,211.7 757.1,211.7 758.6,211.7 760.0,211.7 761.5,211.7 762.9,211.7 764.4,211.7 765.9,211.7 767.3,211.7 768.8,211.7 770.2,211.7 771.7,211.7 773.2,215.7 774.6,215.7 776.1,215.7 777.5,215.7 779.0,215.7 780.4,215.7 781.9,215.7 783.4,215.7 784.8,211.7 786.3,211.7 787.7,211.7 789.2,211.7 790.6,215.7 792.1,215.7 793.6,215.7 795.0,215.7 796.5,215.7 797.9,215.7 799.4,215.7 800.9,215.7 802.3,219.6 803.8,219.6 805.2,219.6 806.7,219.6 808.1,219.6 809.6,219.6 811.1,215.7 812.5,215.7 814.0,215.7 815.4,215.7 816.9,215.7 818.4,219.6 819.8,219.6 821.3,219.6 822.7,219.6 824.2,219.6 825.6,219.6 827.1,219.6 828.6,219.6 830.0,219.6 831.5,219.6 832.9,219.6 834.4,215.7 835.8,215.7 837.3,219.6 838.8,219.6 840.2,219.6 841.7,215.7 843.1,211.7 844.6,211.7 846.1,215.7 847.5,219.6 849.0,223.6 850.4,223.6 851.9,219.6 853.3,219.6 854.8,219.6 856.3,219.6 857.7,219.6 859.2,219.6 860.6,223.6 862.1,223.6 863.5,223.6 865.0,223.6 866.5,223.6 867.9,223.6 869.4,227.5 870.8,227.5 872.3,227.5 873.8,227.5 875.2,227.5 876.7,227.5 878.1,227.5 879.6,231.4 881.0,231.4 882.5,227.5 884.0,227.5 885.4,227.5 886.9,227.5 888.3,227.5 889.8,227.5 891.3,227.5 892.7,231.4 894.2,231.4 895.6,235.4 897.1,235.4 898.5,235.4 900.0,231.4" fill="none" stroke="#ffb454" stroke-width="1.8"/>
<text x="58" y="140" fill="#ffb454" font-size="11">0x228 b2  <tspan fill="#7c8698" font-size="9">SOC candidate  96 &#8594; 78</tspan></text>
<text x="52" y="154" fill="#7c8698" text-anchor="end" font-size="9">100</text>
<text x="52" y="242" fill="#7c8698" text-anchor="end" font-size="9">75</text>
<rect x="58" y="268" width="842" height="96" fill="#171b22"/>
<line x1="198.4" y1="268" x2="198.4" y2="364" stroke="#c9d3e0" stroke-opacity="0.22" stroke-dasharray="2 3"/>
<line x1="291.5" y1="268" x2="291.5" y2="364" stroke="#c9d3e0" stroke-opacity="0.22" stroke-dasharray="2 3"/>
<line x1="371.7" y1="268" x2="371.7" y2="364" stroke="#c9d3e0" stroke-opacity="0.22" stroke-dasharray="2 3"/>
<line x1="460.7" y1="268" x2="460.7" y2="364" stroke="#c9d3e0" stroke-opacity="0.22" stroke-dasharray="2 3"/>
<line x1="536.1" y1="268" x2="536.1" y2="364" stroke="#c9d3e0" stroke-opacity="0.22" stroke-dasharray="2 3"/>
<line x1="613.8" y1="268" x2="613.8" y2="364" stroke="#c9d3e0" stroke-opacity="0.22" stroke-dasharray="2 3"/>
<line x1="704.9" y1="268" x2="704.9" y2="364" stroke="#c9d3e0" stroke-opacity="0.22" stroke-dasharray="2 3"/>
<line x1="783.7" y1="268" x2="783.7" y2="364" stroke="#c9d3e0" stroke-opacity="0.22" stroke-dasharray="2 3"/>
<line x1="858.3" y1="268" x2="858.3" y2="364" stroke="#c9d3e0" stroke-opacity="0.22" stroke-dasharray="2 3"/>
<line x1="884.1" y1="268" x2="884.1" y2="364" stroke="#c9d3e0" stroke-opacity="0.22" stroke-dasharray="2 3"/>
<polyline points="58.7,283.3 60.2,283.3 61.6,283.3 63.1,283.3 64.6,283.3 66.0,283.3 67.5,283.3 68.9,283.3 70.4,283.3 71.9,283.3 73.3,283.3 74.8,283.3 76.2,283.3 77.7,283.3 79.1,290.0 80.6,288.1 82.1,291.9 83.5,293.9 85.0,285.2 86.4,279.4 87.9,276.5 89.3,278.5 90.8,293.4 92.3,281.4 93.7,280.4 95.2,291.9 96.6,302.5 98.1,302.5 99.6,299.6 101.0,291.0 102.5,275.6 103.9,275.6 105.4,278.5 106.8,284.2 108.3,291.0 109.8,306.9 111.2,306.4 112.7,300.6 114.1,295.8 115.6,294.8 117.0,293.9 118.5,291.9 120.0,291.9 121.4,291.9 122.9,292.9 124.3,286.2 125.8,282.3 127.3,275.6 128.7,277.5 130.2,275.6 131.6,279.4 133.1,290.0 134.5,291.9 136.0,305.4 137.5,304.5 138.9,299.6 140.4,298.7 141.8,295.8 143.3,296.8 144.8,295.8 146.2,291.9 147.7,292.9 149.1,291.9 150.6,291.9 152.0,291.9 153.5,291.9 155.0,288.1 156.4,286.2 157.9,290.0 159.3,291.0 160.8,291.0 162.2,289.1 163.7,291.0 165.2,290.0 166.6,286.2 168.1,274.6 169.5,281.4 171.0,288.1 172.5,286.2 173.9,287.1 175.4,284.2 176.8,288.1 178.3,294.8 179.7,297.7 181.2,307.3 182.7,302.5 184.1,302.5 185.6,304.5 187.0,305.4 188.5,305.4 189.9,303.5 191.4,286.2 192.9,299.6 194.3,298.7 195.8,295.8 197.2,292.9 198.7,294.8 200.2,296.8 201.6,299.6 203.1,301.6 204.5,302.5 206.0,302.5 207.4,302.5 208.9,302.5 210.4,300.6 211.8,298.7 213.3,296.8 214.7,296.8 216.2,294.8 217.7,293.9 219.1,293.9 220.6,293.9 222.0,292.9 223.5,294.8 224.9,296.8 226.4,297.7 227.9,297.7 229.3,297.7 230.8,296.8 232.2,295.8 233.7,295.8 235.1,296.8 236.6,296.8 238.1,318.9 239.5,316.0 241.0,307.3 242.4,305.4 243.9,305.4 245.4,305.4 246.8,305.4 248.3,305.4 249.7,302.5 251.2,306.4 252.6,306.4 254.1,306.4 255.6,306.4 257.0,306.4 258.5,306.4 259.9,306.4 261.4,306.4 262.9,306.4 264.3,304.5 265.8,304.5 267.2,303.5 268.7,303.5 270.1,303.5 271.6,304.5 273.1,304.5 274.5,304.5 276.0,304.5 277.4,304.5 278.9,305.4 280.3,306.4 281.8,306.4 283.3,305.4 284.7,303.5 286.2,303.5 287.6,302.5 289.1,303.5 290.6,303.5 292.0,304.5 293.5,304.5 294.9,305.4 296.4,305.4 297.8,303.5 299.3,304.5 300.8,304.5 302.2,304.5 303.7,305.4 305.1,305.4 306.6,305.4 308.0,306.4 309.5,306.4 311.0,306.4 312.4,307.3 313.9,307.3 315.3,307.3 316.8,308.3 318.3,308.3 319.7,307.3 321.2,306.4 322.6,306.4 324.1,306.4 325.5,308.3 327.0,308.3 328.5,309.3 329.9,309.3 331.4,309.3 332.8,308.3 334.3,306.4 335.8,306.4 337.2,305.4 338.7,304.5 340.1,309.3 341.6,310.2 343.0,309.3 344.5,309.3 346.0,309.3 347.4,309.3 348.9,308.3 350.3,306.4 351.8,305.4 353.2,306.4 354.7,309.3 356.2,310.2 357.6,310.2 359.1,311.2 360.5,311.2 362.0,312.2 363.5,312.2 364.9,316.0 366.4,316.0 367.8,313.1 369.3,310.2 370.7,310.2 372.2,310.2 373.7,311.2 375.1,311.2 376.6,308.3 378.0,308.3 379.5,309.3 380.9,309.3 382.4,308.3 383.9,307.3 385.3,307.3 386.8,307.3 388.2,308.3 389.7,307.3 391.2,306.4 392.6,308.3 394.1,309.3 395.5,308.3 397.0,308.3 398.4,310.2 399.9,309.3 401.4,310.2 402.8,309.3 404.3,309.3 405.7,308.3 407.2,308.3 408.7,309.3 410.1,309.3 411.6,309.3 413.0,311.2 414.5,312.2 415.9,312.2 417.4,312.2 418.9,312.2 420.3,312.2 421.8,309.3 423.2,308.3 424.7,309.3 426.1,309.3 427.6,310.2 429.1,311.2 430.5,311.2 432.0,311.2 433.4,312.2 434.9,312.2 436.4,311.2 437.8,311.2 439.3,311.2 440.7,311.2 442.2,311.2 443.6,312.2 445.1,312.2 446.6,313.1 448.0,313.1 449.5,313.1 450.9,313.1 452.4,313.1 453.8,313.1 455.3,313.1 456.8,313.1 458.2,313.1 459.7,313.1 461.1,313.1 462.6,313.1 464.1,314.1 465.5,315.0 467.0,314.1 468.4,313.1 469.9,313.1 471.3,312.2 472.8,312.2 474.3,314.1 475.7,317.0 477.2,319.8 478.6,319.8 480.1,317.9 481.6,314.1 483.0,313.1 484.5,314.1 485.9,315.0 487.4,315.0 488.8,315.0 490.3,315.0 491.8,315.0 493.2,315.0 494.7,315.0 496.1,315.0 497.6,317.0 499.0,317.0 500.5,317.0 502.0,317.0 503.4,317.0 504.9,317.0 506.3,317.0 507.8,317.0 509.3,316.0 510.7,316.0 512.2,316.0 513.6,316.0 515.1,316.0 516.5,316.0 518.0,316.0 519.5,317.0 520.9,317.9 522.4,317.9 523.8,317.9 525.3,317.0 526.7,316.0 528.2,316.0 529.7,316.0 531.1,317.0 532.6,317.0 534.0,317.9 535.5,317.9 537.0,317.9 538.4,317.9 539.9,317.9 541.3,317.0 542.8,317.0 544.2,317.9 545.7,317.9 547.2,318.9 548.6,318.9 550.1,318.9 551.5,319.8 553.0,320.8 554.5,320.8 555.9,319.8 557.4,318.9 558.8,318.9 560.3,318.9 561.7,318.9 563.2,319.8 564.7,320.8 566.1,320.8 567.6,320.8 569.0,320.8 570.5,320.8 571.9,320.8 573.4,321.8 574.9,322.7 576.3,322.7 577.8,323.7 579.2,323.7 580.7,322.7 582.2,320.8 583.6,319.8 585.1,319.8 586.5,320.8 588.0,321.8 589.4,322.7 590.9,322.7 592.4,321.8 593.8,321.8 595.3,321.8 596.7,322.7 598.2,322.7 599.7,322.7 601.1,322.7 602.6,322.7 604.0,322.7 605.5,322.7 606.9,322.7 608.4,322.7 609.9,322.7 611.3,322.7 612.8,322.7 614.2,323.7 615.7,324.7 617.1,324.7 618.6,324.7 620.1,324.7 621.5,324.7 623.0,325.6 624.4,325.6 625.9,325.6 627.4,325.6 628.8,325.6 630.3,327.5 631.7,328.5 633.2,326.6 634.6,324.7 636.1,325.6 637.6,323.7 639.0,322.7 640.5,324.7 641.9,324.7 643.4,313.1 644.8,317.9 646.3,317.9 647.8,313.1 649.2,313.1 650.7,313.1 652.1,309.3 653.6,308.3 655.1,306.4 656.5,304.5 658.0,306.4 659.4,307.3 660.9,312.2 662.3,316.0 663.8,325.6 665.3,327.5 666.7,329.5 668.2,330.4 669.6,332.4 671.1,333.3 672.6,334.3 674.0,334.3 675.5,335.2 676.9,337.2 678.4,337.2 679.8,338.1 681.3,325.6 682.8,327.5 684.2,327.5 685.7,328.5 687.1,327.5 688.6,328.5 690.0,328.5 691.5,328.5 693.0,329.5 694.4,330.4 695.9,329.5 697.3,329.5 698.8,328.5 700.3,328.5 701.7,329.5 703.2,329.5 704.6,330.4 706.1,330.4 707.5,330.4 709.0,330.4 710.5,330.4 711.9,330.4 713.4,330.4 714.8,329.5 716.3,330.4 717.7,330.4 719.2,331.4 720.7,331.4 722.1,331.4 723.6,331.4 725.0,332.4 726.5,332.4 728.0,332.4 729.4,332.4 730.9,332.4 732.3,332.4 733.8,332.4 735.2,332.4 736.7,332.4 738.2,332.4 739.6,333.3 741.1,333.3 742.5,331.4 744.0,330.4 745.5,330.4 746.9,331.4 748.4,332.4 749.8,333.3 751.3,333.3 752.7,333.3 754.2,333.3 755.7,334.3 757.1,334.3 758.6,334.3 760.0,334.3 761.5,335.2 762.9,335.2 764.4,335.2 765.9,335.2 767.3,335.2 768.8,334.3 770.2,333.3 771.7,334.3 773.2,336.2 774.6,336.2 776.1,336.2 777.5,336.2 779.0,336.2 780.4,337.2 781.9,337.2 783.4,336.2 784.8,335.2 786.3,335.2 787.7,335.2 789.2,335.2 790.6,336.2 792.1,337.2 793.6,337.2 795.0,337.2 796.5,337.2 797.9,338.1 799.4,338.1 800.9,339.1 802.3,340.1 803.8,340.1 805.2,340.1 806.7,340.1 808.1,340.1 809.6,340.1 811.1,339.1 812.5,339.1 814.0,339.1 815.4,339.1 816.9,339.1 818.4,340.1 819.8,340.1 821.3,340.1 822.7,340.1 824.2,340.1 825.6,340.1 827.1,341.0 828.6,342.0 830.0,342.0 831.5,342.0 832.9,340.1 834.4,339.1 835.8,339.1 837.3,340.1 838.8,341.0 840.2,341.0 841.7,338.1 843.1,334.3 844.6,334.3 846.1,338.1 847.5,342.0 849.0,343.9 850.4,343.9 851.9,342.9 853.3,342.9 854.8,342.9 856.3,342.0 857.7,342.0 859.2,342.9 860.6,343.9 862.1,345.4 863.5,345.8 865.0,345.8 866.5,346.8 867.9,346.8 869.4,347.8 870.8,348.7 872.3,349.7 873.8,349.7 875.2,349.7 876.7,349.7 878.1,351.6 879.6,351.6 881.0,352.6 882.5,348.7 884.0,348.7 885.4,348.7 886.9,350.6 888.3,350.6 889.8,351.6 891.3,351.6 892.7,351.6 894.2,352.6 895.6,355.5 897.1,357.4 898.5,356.4 900.0,354.5" fill="none" stroke="#c98bff" stroke-width="1.8"/>
<text x="58" y="262" fill="#c98bff" font-size="11">0x186 b6  <tspan fill="#7c8698" font-size="9">SOC candidate  130 &#8594; 56</tspan></text>
<text x="52" y="276" fill="#7c8698" text-anchor="end" font-size="9">146</text>
<text x="52" y="364" fill="#7c8698" text-anchor="end" font-size="9">46</text>
<rect x="58" y="390" width="842" height="96" fill="#171b22"/>
<line x1="198.4" y1="390" x2="198.4" y2="486" stroke="#c9d3e0" stroke-opacity="0.22" stroke-dasharray="2 3"/>
<line x1="291.5" y1="390" x2="291.5" y2="486" stroke="#c9d3e0" stroke-opacity="0.22" stroke-dasharray="2 3"/>
<line x1="371.7" y1="390" x2="371.7" y2="486" stroke="#c9d3e0" stroke-opacity="0.22" stroke-dasharray="2 3"/>
<line x1="460.7" y1="390" x2="460.7" y2="486" stroke="#c9d3e0" stroke-opacity="0.22" stroke-dasharray="2 3"/>
<line x1="536.1" y1="390" x2="536.1" y2="486" stroke="#c9d3e0" stroke-opacity="0.22" stroke-dasharray="2 3"/>
<line x1="613.8" y1="390" x2="613.8" y2="486" stroke="#c9d3e0" stroke-opacity="0.22" stroke-dasharray="2 3"/>
<line x1="704.9" y1="390" x2="704.9" y2="486" stroke="#c9d3e0" stroke-opacity="0.22" stroke-dasharray="2 3"/>
<line x1="783.7" y1="390" x2="783.7" y2="486" stroke="#c9d3e0" stroke-opacity="0.22" stroke-dasharray="2 3"/>
<line x1="858.3" y1="390" x2="858.3" y2="486" stroke="#c9d3e0" stroke-opacity="0.22" stroke-dasharray="2 3"/>
<line x1="884.1" y1="390" x2="884.1" y2="486" stroke="#c9d3e0" stroke-opacity="0.22" stroke-dasharray="2 3"/>
<polyline points="58.7,396.7 60.2,396.7 61.6,396.7 63.1,396.7 64.6,396.7 66.0,396.7 67.5,396.8 68.9,396.8 70.4,396.7 71.9,396.6 73.3,396.7 74.8,396.7 76.2,396.6 77.7,396.6 79.1,399.4 80.6,398.3 82.1,399.8 83.5,400.2 85.0,399.9 86.4,478.2 87.9,477.3 89.3,477.9 90.8,400.5 92.3,478.1 93.7,478.1 95.2,399.8 96.6,403.7 98.1,403.3 99.6,401.8 101.0,398.1 102.5,475.4 103.9,476.1 105.4,477.8 106.8,399.0 108.3,399.1 109.8,405.2 111.2,404.6 112.7,401.8 114.1,399.6 115.6,399.1 117.0,399.0 118.5,398.0 120.0,398.1 121.4,398.1 122.9,398.5 124.3,478.9 125.8,477.8 127.3,475.5 128.7,476.5 130.2,476.3 131.6,478.0 133.1,398.4 134.5,399.2 136.0,404.4 137.5,403.4 138.9,401.3 140.4,400.5 141.8,399.6 143.3,399.8 144.8,399.5 146.2,397.7 147.7,398.1 149.1,397.8 150.6,397.8 152.0,397.8 153.5,397.7 155.0,397.3 156.4,479.2 157.9,397.2 159.3,397.4 160.8,397.8 162.2,397.2 163.7,397.7 165.2,397.4 166.6,479.4 168.1,474.7 169.5,477.4 171.0,397.3 172.5,397.7 173.9,396.8 175.4,478.1 176.8,397.1 178.3,399.8 179.7,401.0 181.2,404.7 182.7,402.1 184.1,401.8 185.6,402.5 187.0,402.5 188.5,402.4 189.9,401.8 191.4,478.2 192.9,402.4 194.3,399.8 195.8,398.3 197.2,397.3 198.7,397.9 200.2,398.8 201.6,400.1 203.1,400.6 204.5,401.1 206.0,400.8 207.4,400.7 208.9,400.5 210.4,399.9 211.8,398.9 213.3,398.3 214.7,398.1 216.2,397.4 217.7,396.9 219.1,397.2 220.6,397.2 222.0,396.9 223.5,398.0 224.9,398.8 226.4,398.8 227.9,398.8 229.3,398.7 230.8,398.4 232.2,398.0 233.7,398.1 235.1,398.3 236.6,398.6 238.1,407.4 239.5,406.0 241.0,401.7 242.4,401.0 243.9,400.8 245.4,400.8 246.8,400.6 248.3,400.6 249.7,399.7 251.2,401.1 252.6,401.0 254.1,400.9 255.6,400.7 257.0,400.7 258.5,400.7 259.9,400.7 261.4,400.7 262.9,400.3 264.3,399.8 265.8,399.6 267.2,399.5 268.7,399.4 270.1,399.5 271.6,399.7 273.1,399.7 274.5,399.6 276.0,399.7 277.4,399.6 278.9,400.0 280.3,400.4 281.8,400.4 283.3,400.1 284.7,399.0 286.2,399.0 287.6,398.9 289.1,399.0 290.6,399.2 292.0,399.5 293.5,399.6 294.9,400.0 296.4,399.8 297.8,399.2 299.3,399.5 300.8,399.6 302.2,399.6 303.7,399.8 305.1,399.8 306.6,399.8 308.0,400.0 309.5,400.2 311.0,400.2 312.4,400.2 313.9,400.3 315.3,400.2 316.8,400.6 318.3,400.5 319.7,400.2 321.2,399.6 322.6,399.6 324.1,399.8 325.5,400.3 327.0,400.4 328.5,400.6 329.9,400.5 331.4,400.4 332.8,399.9 334.3,399.3 335.8,399.3 337.2,399.2 338.7,398.7 340.1,400.5 341.6,400.8 343.0,400.6 344.5,400.3 346.0,400.5 347.4,400.5 348.9,399.8 350.3,399.0 351.8,398.7 353.2,399.1 354.7,400.3 356.2,400.5 357.6,400.6 359.1,400.9 360.5,400.9 362.0,401.1 363.5,401.3 364.9,402.5 366.4,402.5 367.8,401.0 369.3,399.9 370.7,399.9 372.2,399.9 373.7,400.3 375.1,400.3 376.6,399.0 378.0,398.9 379.5,399.6 380.9,399.6 382.4,399.2 383.9,398.9 385.3,398.7 386.8,399.0 388.2,399.4 389.7,398.9 391.2,398.6 392.6,399.3 394.1,399.6 395.5,399.3 397.0,399.5 398.4,400.0 399.9,399.8 401.4,399.9 402.8,399.8 404.3,399.4 405.7,399.2 407.2,399.3 408.7,399.4 410.1,399.4 411.6,399.6 413.0,400.4 414.5,400.6 415.9,400.7 417.4,400.5 418.9,400.4 420.3,400.3 421.8,399.2 423.2,398.8 424.7,399.0 426.1,399.2 427.6,399.6 429.1,399.9 430.5,400.1 432.0,400.0 433.4,400.1 434.9,400.0 436.4,399.8 437.8,399.8 439.3,399.7 440.7,399.7 442.2,399.8 443.6,400.0 445.1,400.1 446.6,400.3 448.0,400.3 449.5,400.2 450.9,400.1 452.4,400.1 453.8,400.2 455.3,400.1 456.8,400.1 458.2,400.1 459.7,400.0 461.1,400.1 462.6,399.9 464.1,400.2 465.5,400.6 467.0,400.4 468.4,399.9 469.9,399.7 471.3,399.4 472.8,399.3 474.3,400.1 475.7,401.5 477.2,402.6 478.6,402.2 480.1,401.3 481.6,399.8 483.0,399.1 484.5,399.6 485.9,400.0 487.4,400.1 488.8,400.1 490.3,400.0 491.8,400.0 493.2,399.9 494.7,399.9 496.1,400.1 497.6,400.7 499.0,400.8 500.5,400.6 502.0,400.5 503.4,400.4 504.9,400.4 506.3,400.3 507.8,400.3 509.3,400.1 510.7,400.0 512.2,399.9 513.6,400.0 515.1,400.0 516.5,400.0 518.0,400.0 519.5,400.2 520.9,400.8 522.4,400.9 523.8,400.7 525.3,400.2 526.7,399.8 528.2,399.8 529.7,399.7 531.1,400.0 532.6,400.2 534.0,400.4 535.5,400.6 537.0,400.3 538.4,400.2 539.9,400.1 541.3,400.0 542.8,399.8 544.2,399.9 545.7,400.2 547.2,400.3 548.6,400.3 550.1,400.3 551.5,400.7 553.0,401.2 554.5,401.0 555.9,400.6 557.4,400.2 558.8,400.0 560.3,400.1 561.7,400.1 563.2,400.4 564.7,400.7 566.1,400.6 567.6,400.8 569.0,400.6 570.5,400.6 571.9,400.6 573.4,401.0 574.9,401.0 576.3,401.1 577.8,401.4 579.2,401.4 580.7,401.0 582.2,400.0 583.6,399.6 585.1,399.7 586.5,399.9 588.0,400.5 589.4,400.7 590.9,400.6 592.4,400.3 593.8,400.2 595.3,400.3 596.7,400.4 598.2,400.4 599.7,400.5 601.1,400.4 602.6,400.4 604.0,400.4 605.5,400.3 606.9,400.1 608.4,400.1 609.9,400.1 611.3,400.0 612.8,400.0 614.2,400.3 615.7,400.6 617.1,400.8 618.6,400.7 620.1,400.7 621.5,400.5 623.0,400.7 624.4,400.7 625.9,400.8 627.4,400.5 628.8,400.5 630.3,401.2 631.7,401.5 633.2,400.8 634.6,399.6 636.1,400.1 637.6,399.3 639.0,399.1 640.5,399.8 641.9,400.1 643.4,478.2 644.8,397.2 646.3,397.3 647.8,478.8 649.2,479.1 650.7,479.4 652.1,477.6 653.6,477.4 655.1,476.9 656.5,476.4 658.0,477.8 659.4,477.4 660.9,396.9 662.3,398.5 663.8,402.8 665.3,403.1 666.7,403.7 668.2,403.7 669.6,403.9 671.1,404.0 672.6,404.0 674.0,404.0 675.5,404.1 676.9,404.2 678.4,404.2 679.8,404.2 681.3,398.5 682.8,399.6 684.2,399.9 685.7,400.1 687.1,399.8 688.6,399.9 690.0,400.0 691.5,400.2 693.0,400.3 694.4,400.7 695.9,400.4 697.3,400.2 698.8,400.0 700.3,400.0 701.7,400.1 703.2,400.3 704.6,400.3 706.1,400.4 707.5,400.5 709.0,400.4 710.5,400.2 711.9,400.0 713.4,400.0 714.8,399.9 716.3,399.9 717.7,400.2 719.2,400.2 720.7,400.2 722.1,400.4 723.6,400.4 725.0,400.5 726.5,400.4 728.0,400.4 729.4,400.4 730.9,400.4 732.3,400.3 733.8,400.3 735.2,400.3 736.7,400.3 738.2,400.2 739.6,400.5 741.1,400.3 742.5,399.7 744.0,399.2 745.5,399.3 746.9,399.7 748.4,400.1 749.8,400.2 751.3,400.2 752.7,400.2 754.2,400.3 755.7,400.3 757.1,400.3 758.6,400.5 760.0,400.5 761.5,400.6 762.9,400.6 764.4,400.7 765.9,400.6 767.3,400.5 768.8,400.1 770.2,399.7 771.7,400.0 773.2,400.5 774.6,400.7 776.1,400.6 777.5,400.5 779.0,400.4 780.4,400.7 781.9,400.6 783.4,400.2 784.8,399.6 786.3,399.5 787.7,399.7 789.2,399.8 790.6,400.2 792.1,400.3 793.6,400.2 795.0,400.3 796.5,400.3 797.9,400.4 799.4,400.5 800.9,400.7 802.3,400.8 803.8,400.8 805.2,400.7 806.7,400.6 808.1,400.6 809.6,400.4 811.1,400.1 812.5,399.9 814.0,399.9 815.4,400.0 816.9,400.1 818.4,400.2 819.8,400.2 821.3,400.1 822.7,400.0 824.2,399.9 825.6,400.0 827.1,400.4 828.6,400.6 830.0,400.6 831.5,400.4 832.9,399.5 834.4,399.3 835.8,399.3 837.3,399.5 838.8,400.0 840.2,399.8 841.7,398.4 843.1,397.0 844.6,397.0 846.1,398.8 847.5,400.3 849.0,401.0 850.4,400.8 851.9,400.4 853.3,400.3 854.8,400.0 856.3,399.6 857.7,399.6 859.2,399.8 860.6,400.1 862.1,400.4 863.5,400.4 865.0,400.4 866.5,400.5 867.9,400.6 869.4,400.6 870.8,400.7 872.3,400.8 873.8,400.8 875.2,400.6 876.7,400.6 878.1,400.8 879.6,400.7 881.0,400.9 882.5,399.0 884.0,399.0 885.4,399.2 886.9,399.8 888.3,399.8 889.8,399.9 891.3,399.8 892.7,399.8 894.2,400.1 895.6,401.1 897.1,401.3 898.5,400.8 900.0,399.8" fill="none" stroke="#7bd88f" stroke-width="1.8"/>
<text x="58" y="384" fill="#7bd88f" font-size="11">0x2C7 b1-2  <tspan fill="#7c8698" font-size="9">pack voltage (V-shaped)  49094 &#8594; 48792</tspan></text>
<text x="52" y="398" fill="#7c8698" text-anchor="end" font-size="9">49750</text>
<text x="52" y="486" fill="#7c8698" text-anchor="end" font-size="9">40350</text>
<text x="58" y="508" fill="#7c8698" font-size="9">x = 0&#8230;29 min · dashed verticals = gauge-bar drops</text>
</svg>